/* XPM */
static char *Pixmap[] = {
"64 16 2 1",
"0 c black",
"1 c gray100",
"0000000100000001000000010000000100000001000000010000000100000001",
"0111110101111101011111010111110101111101011111010111110101111101",
"0100010101000101010101010100010101000101010001010100010101000101",
"0101010101110101010101010101110101010101010101010101110101011101",
"0101010101000101010001010100010101000101010001010101110101000101",
"0101010101011101011101010101010101010101010101010101110101011101",
"0100010101000101011101010100010101000101010101010100010101000101",
"0111110101111101011111010111110101111101011111010111110101111101",
"0111110101111101011111010111110101111101011111010111110101111101",
"0110110101000101010001010100010101000101010011010100110101000101",
"0100110101110101010111010101010101010101010101010101010101011101",
"0110110101000101010001010111010101000101010011010101010101000101",
"0110110101110101011101010111010101110101010101010101010101011101",
"0100010101000101010001010111010101000101010011010100110101011101",
"0111110101111101011111010111110101111101011111010111110101111101",
"0000000100000001000000010000000100000001000000010000000100000001"
};
